<?xml version="1.0" encoding="UTF-8"?>
<svg xmlns="http://www.w3.org/2000/svg" xmlns:xlink="http://www.w3.org/1999/xlink" viewBox="0 0 144 144" width="144px" height="144px">
<g id="surface29950759">
<path style=" stroke:none;fill-rule:nonzero;fill:rgb(100%,100%,100%);fill-opacity:1;" d="M 72 12 C 38.863281 12 12 38.863281 12 72 C 12 105.136719 38.863281 132 72 132 C 105.136719 132 132 105.136719 132 72 C 132 38.863281 105.136719 12 72 12 Z M 72 12 "/>
<path style=" stroke:none;fill-rule:nonzero;fill:rgb(53.333336%,32.941177%,100%);fill-opacity:1;" d="M 131.847656 68.980469 C 131.0625 68.914062 130.285156 68.804688 129.40625 68.648438 C 118.351562 66.679688 84.257812 20.425781 61.140625 18.277344 C 49.121094 17.160156 42.652344 19.777344 42.15625 20 C 35.546875 23.804688 29.734375 28.8125 25.015625 34.753906 C 27.082031 33.835938 30.203125 33 37.714844 33 C 61.398438 33 100.78125 81 129 81 C 129.492188 81 130.324219 80.914062 131.285156 80.789062 C 131.710938 77.914062 132 74.992188 132 72 C 132 70.984375 131.898438 69.988281 131.847656 68.980469 Z M 131.847656 68.980469 "/>
<path style=" stroke:none;fill-rule:nonzero;fill:rgb(53.333336%,32.941177%,100%);fill-opacity:1;" d="M 114.859375 96 C 89.59375 96 60.109375 57 29.144531 57 C 18.78125 57 14.539062 63.613281 12.234375 67.402344 C 12.117188 68.929688 12 70.449219 12 72 C 12 78.457031 13.046875 84.660156 14.933594 90.488281 C 17.167969 87.28125 21.863281 84 29.140625 84 C 57.167969 84 73.625 108 103.429688 108 C 114.164062 108 119.402344 104.90625 124.234375 101.457031 C 124.234375 101.457031 124.234375 101.453125 124.234375 101.453125 C 127.160156 96.277344 129.347656 90.640625 130.632812 84.664062 C 128.839844 87.796875 126.238281 96 114.859375 96 Z M 115.277344 113.488281 C 112.132812 114.894531 102.453125 120 89.140625 120 C 73.351562 120 64.996094 111 54.855469 111 C 43.875 111 42 123 42 123 C 42 123.304688 42.015625 123.613281 42.019531 123.917969 C 50.847656 129.027344 61.066406 132 72 132 C 89.023438 132 104.359375 124.878906 115.277344 113.488281 Z M 115.277344 113.488281 "/>
</g>
</svg>
