<svg width="354" height="225" viewBox="0 0 354 225" fill="none" xmlns="http://www.w3.org/2000/svg">
<path d="M5.76614 88.6232C5.31092 97.2582 4.8557 106.132 0.065033 114.245V111.559C3.64178 104.382 4.0428 96.6057 4.45467 88.5579C5.09415 76.3123 5.75531 63.6425 18.7291 53.2348C21.7314 50.8205 24.712 49.0913 27.6601 47.8841L27.6493 35.8234C27.6493 33.5287 29.5136 31.669 31.7897 31.669L58.431 31.6473C60.7071 31.6473 62.5713 33.4961 62.5713 35.7908L62.5822 48.1016C72.5862 49.5263 82.2976 49.4611 92.6376 41.1741C105.156 31.147 105.763 19.3146 106.414 6.81884C106.533 4.61114 106.652 2.3817 106.825 0.152252H108.148C107.953 2.35995 107.833 4.62202 107.714 6.88409C107.096 19.1406 106.435 31.8104 93.4614 42.2072C82.8395 50.7226 72.5754 50.8205 62.593 49.4284V55.1489C62.593 57.4327 60.7288 59.3032 58.4635 59.3032L31.8222 59.325C29.5352 59.325 27.671 57.4544 27.671 55.1815V49.2653C24.9938 50.4398 22.295 52.0603 19.5529 54.268C7.02343 64.295 6.41646 76.1057 5.76614 88.6232Z" fill="url(#paint0_linear_13_27)"/>
<path d="M3.94527 178.802C2.65547 178.573 1.38736 178.356 0.108398 178.16V176.833C1.46323 177.04 2.81805 177.279 4.16204 177.518C16.4639 179.639 28.0829 181.651 40.5906 171.613C53.1092 161.586 53.7162 149.764 54.3665 137.258C55.006 125.012 55.6563 112.342 68.6301 101.935C81.604 91.5269 94.0575 93.6802 106.11 95.7683C118.412 97.889 130.031 99.9118 142.539 89.8847C155.046 79.8577 155.664 68.0253 156.315 55.5295C156.954 43.2839 157.593 30.6141 170.578 20.2064C183.552 9.80956 196.006 11.952 208.047 14.0401C220.349 16.1608 231.968 18.1836 244.476 8.1565C247.706 5.56817 250.134 2.87109 251.976 0.0652466H253.515C251.553 3.24085 248.898 6.29682 245.31 9.18966C232.337 19.5865 219.883 17.4223 207.83 15.356C195.529 13.2135 183.91 11.2125 171.402 21.2395C158.883 31.2666 158.276 43.0881 157.626 55.5948C156.987 67.8404 156.336 80.5102 143.362 90.9179C130.389 101.315 117.946 99.1723 105.893 97.0842C93.5915 94.9417 81.9616 92.9407 69.443 102.968C56.9244 112.995 56.3175 124.816 55.6671 137.323C55.0277 149.569 54.3882 162.238 41.4035 172.646C28.4405 183.043 15.987 180.89 3.94527 178.802Z" fill="url(#paint1_linear_13_27)"/>
<path d="M272.7 34.812L272.754 34.4749H279.788C280.742 34.5184 281.511 34.812 281.771 35.8343L283.311 43.2186C281.804 39.347 278.173 36.1388 272.7 34.812Z" fill="url(#paint2_linear_13_27)"/>
<path d="M283.495 44.3062L283.972 46.0353L288.416 34.638H293.217L286.074 51.299H281.284L277.219 37.3786C280.135 39.26 282.617 42.229 283.495 44.3062Z" fill="url(#paint3_linear_13_27)"/>
<path d="M301.476 39.8255C301.498 36.5847 304.663 34.3008 309.139 34.3008C310.895 34.3008 312.315 34.6706 313.203 35.0077L312.586 38.6184L312.174 38.4335C311.328 38.0963 310.255 37.781 308.77 37.7918C307.004 37.7918 306.169 38.5422 306.169 39.2382C306.158 40.0104 307.145 40.5324 308.727 41.3046C311.339 42.5009 312.553 43.9364 312.521 45.8505C312.499 49.3197 309.399 51.56 304.641 51.56C302.603 51.5383 300.652 51.125 299.59 50.6682L300.23 46.9271L300.804 47.1881C302.289 47.808 303.264 48.069 305.075 48.069C306.375 48.069 307.773 47.5579 307.795 46.4377C307.806 45.6982 307.199 45.1762 305.443 44.3605C303.72 43.5666 301.454 42.2181 301.476 39.8255Z" fill="url(#paint4_linear_13_27)"/>
<path d="M312.239 51.299L318.959 35.9757C319.436 34.899 320.259 34.5945 321.343 34.5945H324.844L328.529 51.2881H324.313C324.313 51.2881 323.901 49.3741 323.76 48.7977H317.951C317.777 49.2327 316.997 51.2881 316.997 51.2881L312.239 51.299Z" fill="url(#paint5_linear_13_27)"/>
<path d="M350.9 10.4077C352.569 13.4202 353.501 16.9003 353.501 20.587L353.523 44.7412C353.155 47.8515 352.992 50.9728 352.829 54.0613C352.179 66.5789 351.572 78.3895 339.054 88.4166C326.535 98.4436 314.916 96.4317 302.625 94.3001C290.583 92.2121 278.13 90.0587 265.156 100.466C252.171 110.863 251.521 123.533 250.892 135.79C250.242 148.285 249.635 160.118 237.116 170.145C224.598 180.172 212.979 178.16 200.688 176.028C188.635 173.94 176.182 171.787 163.208 182.195C150.234 192.591 149.573 205.261 148.944 217.518C148.825 219.78 148.717 222.031 148.511 224.25L77.301 224.304C78.038 223.804 78.7859 223.249 79.5229 222.651C92.5076 212.254 93.1579 199.584 93.7865 187.328C94.4369 174.81 95.0438 163 107.562 152.973C120.081 142.946 131.711 144.947 144.013 147.089C156.065 149.177 168.508 151.33 181.482 140.923C194.456 130.526 195.117 117.856 195.745 105.6C196.396 93.0821 197.003 81.2715 209.521 71.2444C222.04 61.2173 233.659 63.2184 245.95 65.3608C258.002 67.438 270.456 69.6022 283.43 59.1945C287.776 55.7035 290.746 51.9624 292.784 48.0582L292.231 51.299H296.761L299.601 34.6054H296.826C297.325 31.0382 297.509 27.4385 297.683 23.8714C298.105 15.4974 298.539 7.43874 302.527 0.021759H301.075C297.217 7.62363 296.794 15.8019 296.382 23.8061C296.187 27.482 296.003 31.0926 295.515 34.6054H295.07L293.694 42.7184C291.83 48.1887 288.578 53.3762 282.617 58.1614C270.098 68.1884 258.479 66.1765 246.188 64.0449C234.147 61.9569 221.693 59.8035 208.719 70.2112C195.735 80.6081 195.084 93.2779 194.456 105.534C193.805 118.03 193.198 129.863 180.68 139.89C168.161 149.917 156.542 147.905 144.251 145.773C132.199 143.685 119.745 141.532 106.771 151.939C93.7974 162.347 93.1037 175.028 92.4751 187.273C91.8248 199.791 91.2178 211.602 78.6992 221.629C77.4311 222.64 76.1846 223.543 74.9165 224.304L20.9402 224.347C13.2665 224.358 6.53569 220.258 2.82889 214.136C6.45982 220.628 13.3749 225.011 21.3087 225L332.843 224.772C344.538 224.761 354.011 215.234 354 203.51L353.87 21.2178C353.87 17.2592 352.797 13.5616 350.9 10.4077ZM353.642 202.858C353.653 214.592 344.169 224.108 332.485 224.119L190.088 224.217C190.153 224.152 190.229 224.097 190.315 224.032C202.834 214.005 214.464 216.006 226.766 218.149C238.818 220.237 251.261 222.39 264.235 211.982C277.208 201.585 277.87 188.916 278.498 176.659C279.149 164.142 279.756 152.331 292.274 142.304C304.793 132.277 316.412 134.278 328.703 136.42C336.821 137.812 345.102 139.248 353.599 136.866L353.642 202.858ZM353.588 135.539C345.351 137.965 337.287 136.562 328.909 135.126C316.867 133.038 304.413 130.885 291.44 141.292C278.455 151.689 277.805 164.359 277.176 176.616C276.526 189.111 275.919 200.944 263.4 210.971C250.881 220.998 239.262 218.986 226.971 216.854C214.919 214.766 202.465 212.613 189.492 223.021C188.993 223.412 188.505 223.825 188.05 224.239L149.844 224.271C150.028 222.042 150.147 219.823 150.256 217.605C150.906 205.087 151.513 193.277 164.032 183.25C176.55 173.223 188.169 175.224 200.482 177.366C212.534 179.454 224.977 181.607 237.951 171.2C250.925 160.803 251.586 148.133 252.215 135.877C252.865 123.359 253.472 111.548 265.99 101.521C278.509 91.4943 290.128 93.4954 302.419 95.6378C314.472 97.715 326.925 99.8792 339.899 89.4715C349.816 81.5216 352.526 72.2449 353.545 62.8595L353.588 135.539Z" fill="url(#paint6_linear_13_27)"/>
<path d="M106.825 0.163116C106.641 2.39256 106.522 4.61113 106.414 6.8297C105.763 19.3255 105.156 31.1578 92.6377 41.1849C82.2976 49.461 72.5862 49.5372 62.5822 48.1125L62.5713 35.8016C62.5713 33.5069 60.7071 31.6581 58.431 31.6581L31.7897 31.6799C29.5027 31.6799 27.6385 33.5395 27.6493 35.8342L27.6602 47.895C24.7121 49.113 21.7314 50.8313 18.7291 53.2457C5.75531 63.6425 5.09416 76.3123 4.45468 88.5579C4.04281 96.6057 3.64178 104.382 0.065041 111.559L9.28099e-06 21.4788C-0.0108293 9.76605 9.47296 0.228369 21.157 0.228369L106.825 0.163116Z" fill="url(#paint7_linear_13_27)"/>
<path d="M251.998 0.0543823C250.144 2.86022 247.727 5.55731 244.497 8.14564C231.979 18.1727 220.36 16.1608 208.069 14.0292C196.027 11.9411 183.574 9.78782 170.6 20.1955C157.615 30.5924 156.965 43.2621 156.336 55.5186C155.686 68.0144 155.079 79.8468 142.56 89.8739C130.042 99.9009 118.423 97.889 106.132 95.7574C94.0792 93.6694 81.6256 91.516 68.6518 101.924C55.678 112.331 55.0168 124.99 54.3882 137.247C53.7378 149.764 53.1309 161.575 40.6123 171.602C28.0937 181.629 16.4747 179.628 4.1837 177.507C2.82887 177.268 1.47404 177.04 0.130055 176.822L0.0867004 114.235C4.88821 106.122 5.34343 97.2582 5.78781 88.6123C6.43813 76.0948 7.04509 64.2842 19.5637 54.2571C22.3059 52.0603 25.0047 50.429 27.6818 49.2544V55.1706C27.6818 57.4545 29.5461 59.3141 31.833 59.3141L58.4743 59.2924C60.7504 59.2924 62.6038 57.4218 62.6038 55.138V49.4176C72.5754 50.8096 82.8504 50.7117 93.4722 42.1963C106.435 31.8104 107.096 19.1406 107.725 6.89497C107.844 4.6329 107.953 2.38171 108.159 0.163136L251.998 0.0543823Z" fill="url(#paint8_linear_13_27)"/>
<path d="M253.537 0.0543851C251.575 3.22999 248.92 6.28596 245.332 9.1788C232.358 19.5756 219.905 17.4114 207.852 15.3451C195.55 13.2027 183.931 11.2016 171.424 21.2287C158.905 31.2557 158.298 43.0772 157.648 55.5839C157.008 67.8295 156.358 80.4993 143.384 90.907C130.41 101.304 117.967 99.1614 105.915 97.0733C93.6131 94.9309 81.9833 92.9298 69.4647 102.957C56.9461 112.984 56.3391 124.805 55.6888 137.312C55.0493 149.558 54.4098 162.228 41.4252 172.635C28.4514 183.032 15.9978 180.89 3.9561 178.802C2.66631 178.573 1.39819 178.356 0.119232 178.16L0.140909 203.771C0.140909 207.415 1.06219 210.851 2.69882 213.853C2.75302 213.962 2.78553 214.049 2.8614 214.125C6.56821 220.247 13.2881 224.337 20.9727 224.337L74.949 224.293C76.2063 223.532 77.4527 222.629 78.7317 221.618C91.2503 211.591 91.8573 199.769 92.5076 187.263C93.147 175.017 93.7974 162.347 106.771 151.939C119.745 141.532 132.199 143.685 144.251 145.773C156.553 147.894 168.172 149.917 180.68 139.89C193.187 129.862 193.805 118.03 194.456 105.534C195.095 93.2887 195.735 80.6189 208.719 70.2112C221.693 59.8144 234.147 61.9568 246.188 64.0449C258.49 66.1656 270.109 68.1884 282.617 58.1613C288.589 53.3762 291.841 48.1887 293.694 42.7184L295.07 34.6054H295.515C296.013 31.0926 296.198 27.482 296.382 23.8061C296.794 15.8019 297.227 7.62362 301.075 0.021759L253.537 0.0543851ZM272.754 34.4749H279.788C280.742 34.5184 281.511 34.812 281.771 35.8343L283.311 43.2186C281.793 39.3579 278.173 36.1497 272.7 34.8229L272.754 34.4749ZM286.074 51.2881H281.284L277.219 37.3677C280.135 39.2491 282.617 42.229 283.495 44.2953L283.972 46.0245L288.416 34.6271H293.217L286.074 51.2881Z" fill="url(#paint9_linear_13_27)"/>
<path d="M272.7 34.812L272.754 34.4749H279.788C280.742 34.5184 281.511 34.812 281.771 35.8343L283.311 43.2186C281.804 39.347 278.173 36.1388 272.7 34.812Z" fill="url(#paint10_linear_13_27)"/>
<path d="M283.495 44.3062L283.972 46.0353L288.416 34.638H293.217L286.074 51.299H281.284L277.219 37.3786C280.135 39.26 282.617 42.229 283.495 44.3062Z" fill="url(#paint11_linear_13_27)"/>
<path d="M350.9 10.4077C349.22 7.53661 346.879 5.13316 344.072 3.33873C340.788 1.21804 336.875 0 332.691 0L302.527 0.0217507C298.539 7.43874 298.116 15.4974 297.683 23.8714C297.498 27.4385 297.325 31.0382 296.826 34.6053H299.601L296.761 51.299H292.231L292.784 48.0581C290.757 51.9624 287.776 55.7035 283.43 59.1945C270.456 69.5913 258.002 67.4271 245.95 65.3608C233.648 63.2184 222.029 61.2173 209.521 71.2444C197.003 81.2715 196.396 93.0929 195.745 105.6C195.106 117.845 194.456 130.515 181.482 140.923C168.508 151.32 156.065 149.177 144.013 147.089C131.711 144.947 120.081 142.946 107.562 152.973C95.0438 163 94.4369 174.821 93.7866 187.328C93.1471 199.573 92.5076 212.243 79.5229 222.651C78.7859 223.249 78.0381 223.793 77.301 224.304L148.511 224.25C148.706 222.042 148.825 219.78 148.944 217.518C149.584 205.272 150.234 192.602 163.208 182.195C176.182 171.798 188.635 173.94 200.688 176.028C212.99 178.149 224.609 180.172 237.116 170.145C249.624 160.118 250.242 148.285 250.892 135.79C251.532 123.544 252.171 110.874 265.156 100.466C278.13 90.0696 290.583 92.212 302.625 94.3001C314.927 96.4208 326.546 98.4436 339.054 88.4166C351.572 78.3895 352.179 66.568 352.829 54.0613C352.981 50.9619 353.155 47.8406 353.523 44.7412L353.501 20.587C353.501 16.9003 352.569 13.4202 350.9 10.4077ZM304.663 51.56C302.625 51.5383 300.674 51.125 299.612 50.6682L300.251 46.9271L300.826 47.1881C302.311 47.808 303.286 48.069 305.096 48.069C306.397 48.069 307.795 47.5579 307.817 46.4377C307.828 45.6982 307.221 45.1762 305.465 44.3605C303.731 43.5666 301.454 42.229 301.487 39.8364C301.509 36.5955 304.673 34.3117 309.15 34.3117C310.906 34.3117 312.326 34.6815 313.214 35.0186L312.597 38.6292L312.185 38.4443C311.339 38.1072 310.266 37.7918 308.781 37.8027C307.015 37.8027 306.18 38.5531 306.18 39.2491C306.169 40.0213 307.156 40.5433 308.738 41.3154C311.35 42.5117 312.564 43.9473 312.531 45.8613C312.521 49.3088 309.421 51.5491 304.663 51.56ZM324.324 51.2881C324.324 51.2881 323.912 49.3741 323.771 48.7977H317.962C317.788 49.2327 317.008 51.2881 317.008 51.2881H312.239L318.959 35.9648C319.436 34.8881 320.259 34.5836 321.343 34.5836H324.844L328.529 51.2772L324.324 51.2881Z" fill="url(#paint12_linear_13_27)"/>
<path d="M301.476 39.8255C301.498 36.5847 304.663 34.3008 309.139 34.3008C310.895 34.3008 312.315 34.6706 313.203 35.0077L312.586 38.6184L312.174 38.4335C311.328 38.0963 310.255 37.781 308.77 37.7918C307.004 37.7918 306.169 38.5422 306.169 39.2382C306.158 40.0104 307.145 40.5324 308.727 41.3046C311.339 42.5009 312.553 43.9364 312.521 45.8505C312.499 49.3197 309.399 51.56 304.641 51.56C302.603 51.5383 300.652 51.125 299.59 50.6682L300.23 46.9271L300.804 47.1881C302.289 47.808 303.264 48.069 305.075 48.069C306.375 48.069 307.773 47.5579 307.795 46.4377C307.806 45.6982 307.199 45.1762 305.443 44.3605C303.72 43.5666 301.454 42.2181 301.476 39.8255Z" fill="url(#paint13_linear_13_27)"/>
<path d="M312.239 51.299L318.959 35.9757C319.436 34.899 320.259 34.5945 321.343 34.5945H324.844L328.529 51.2881H324.313C324.313 51.2881 323.901 49.3741 323.76 48.7977H317.951C317.777 49.2327 316.997 51.2881 316.997 51.2881L312.239 51.299Z" fill="url(#paint14_linear_13_27)"/>
<path d="M353.534 62.8377L353.588 135.539C345.351 137.965 337.287 136.562 328.909 135.126C316.867 133.038 304.413 130.885 291.44 141.292C278.455 151.689 277.805 164.359 277.176 176.616C276.526 189.111 275.919 200.944 263.4 210.971C250.881 220.998 239.262 218.986 226.971 216.854C214.919 214.766 202.465 212.613 189.492 223.021C188.993 223.412 188.505 223.825 188.05 224.239L149.844 224.271C150.028 222.042 150.147 219.823 150.256 217.605C150.906 205.087 151.513 193.277 164.032 183.25C176.55 173.222 188.169 175.224 200.482 177.366C212.534 179.454 224.977 181.607 237.951 171.2C250.925 160.803 251.586 148.133 252.215 135.877C252.865 123.359 253.472 111.548 265.99 101.521C278.509 91.4943 290.128 93.4953 302.419 95.6378C314.472 97.715 326.925 99.8792 339.899 89.4715C349.806 81.4998 352.515 72.2232 353.534 62.8377Z" fill="url(#paint15_linear_13_27)"/>
<path d="M350.9 10.4077C352.569 13.4202 353.501 16.9003 353.501 20.587L353.523 44.7412C353.155 47.8515 352.992 50.9728 352.829 54.0613C352.179 66.5789 351.572 78.3895 339.054 88.4166C326.535 98.4436 314.916 96.4317 302.625 94.3001C290.583 92.2121 278.13 90.0587 265.156 100.466C252.171 110.863 251.521 123.533 250.892 135.79C250.242 148.285 249.635 160.118 237.116 170.145C224.598 180.172 212.979 178.16 200.688 176.028C188.635 173.94 176.182 171.787 163.208 182.195C150.234 192.591 149.573 205.261 148.944 217.518C148.825 219.78 148.717 222.031 148.511 224.25L77.301 224.304C78.038 223.804 78.7859 223.249 79.5229 222.651C92.5076 212.254 93.1579 199.584 93.7865 187.328C94.4369 174.81 95.0438 163 107.562 152.973C120.081 142.946 131.711 144.947 144.013 147.089C156.065 149.177 168.508 151.33 181.482 140.923C194.456 130.526 195.117 117.856 195.745 105.6C196.396 93.0821 197.003 81.2715 209.521 71.2444C222.04 61.2173 233.659 63.2184 245.95 65.3608C258.002 67.438 270.456 69.6022 283.43 59.1945C287.776 55.7035 290.746 51.9624 292.784 48.0582L292.231 51.299H296.761L299.601 34.6054H296.826C297.325 31.0382 297.509 27.4385 297.683 23.8714C298.105 15.4974 298.539 7.43874 302.527 0.021759H301.075C297.217 7.62363 296.794 15.8019 296.382 23.8061C296.187 27.482 296.003 31.0926 295.515 34.6054H295.07L293.694 42.7184C291.83 48.1887 288.578 53.3762 282.617 58.1614C270.098 68.1884 258.479 66.1765 246.188 64.0449C234.147 61.9569 221.693 59.8035 208.719 70.2112C195.735 80.6081 195.084 93.2779 194.456 105.534C193.805 118.03 193.198 129.863 180.68 139.89C168.161 149.917 156.542 147.905 144.251 145.773C132.199 143.685 119.745 141.532 106.771 151.939C93.7974 162.347 93.1037 175.028 92.4751 187.273C91.8248 199.791 91.2178 211.602 78.6992 221.629C77.4311 222.64 76.1846 223.543 74.9165 224.304L20.9402 224.347C13.2665 224.358 6.53569 220.258 2.82889 214.136C6.45982 220.628 13.3749 225.011 21.3087 225L332.843 224.772C344.538 224.761 354.011 215.234 354 203.51L353.87 21.2178C353.87 17.2592 352.797 13.5616 350.9 10.4077ZM353.642 202.858C353.653 214.592 344.169 224.108 332.485 224.119L190.088 224.217C190.153 224.152 190.229 224.097 190.315 224.032C202.834 214.005 214.464 216.006 226.766 218.149C238.818 220.237 251.261 222.39 264.235 211.982C277.208 201.585 277.87 188.916 278.498 176.659C279.149 164.142 279.756 152.331 292.274 142.304C304.793 132.277 316.412 134.278 328.703 136.42C336.821 137.812 345.102 139.248 353.599 136.866L353.642 202.858ZM353.588 135.539C345.351 137.965 337.287 136.562 328.909 135.126C316.867 133.038 304.413 130.885 291.44 141.292C278.455 151.689 277.805 164.359 277.176 176.616C276.526 189.111 275.919 200.944 263.4 210.971C250.881 220.998 239.262 218.986 226.971 216.854C214.919 214.766 202.465 212.613 189.492 223.021C188.993 223.412 188.505 223.825 188.05 224.239L149.844 224.271C150.028 222.042 150.147 219.823 150.256 217.605C150.906 205.087 151.513 193.277 164.032 183.25C176.55 173.223 188.169 175.224 200.482 177.366C212.534 179.454 224.977 181.607 237.951 171.2C250.925 160.803 251.586 148.133 252.215 135.877C252.865 123.359 253.472 111.548 265.99 101.521C278.509 91.4943 290.128 93.4954 302.419 95.6378C314.472 97.715 326.925 99.8792 339.899 89.4715C349.816 81.5216 352.526 72.2449 353.545 62.8595L353.588 135.539Z" fill="url(#paint16_linear_13_27)"/>
<path d="M353.588 136.866L353.631 202.858C353.642 214.592 344.158 224.108 332.474 224.119L190.077 224.217C190.142 224.152 190.218 224.097 190.304 224.032C202.823 214.005 214.453 216.006 226.755 218.149C238.807 220.237 251.25 222.39 264.224 211.982C277.198 201.585 277.859 188.916 278.487 176.659C279.138 164.142 279.745 152.331 292.263 142.304C304.782 132.277 316.401 134.278 328.692 136.42C336.799 137.812 345.091 139.259 353.588 136.866Z" fill="url(#paint17_linear_13_27)"/>
<path d="M36.0257 95.6425V97.437L33.4895 97.3282L34.9744 99.3728L33.3811 100.33L32.1238 98.0351L30.8665 100.33L29.3058 99.3728L30.7581 97.3282L28.2436 97.4478V95.6534L30.7581 95.7948L29.3058 93.7176L30.8665 92.7606L32.1238 95.0553L33.3811 92.7606L34.9744 93.7176L33.5003 95.7948L36.0257 95.6425Z" fill="white"/>
<path d="M49.1188 95.6316V97.4261L46.5825 97.3173L48.0674 99.3619L46.4741 100.319L45.2169 98.0242L43.9596 100.319L42.3988 99.3619L43.8512 97.3173L41.3366 97.4369V95.6425L43.8512 95.7839L42.3988 93.7067L43.9596 92.7497L45.2169 95.0444L46.4741 92.7497L48.0674 93.7067L46.5934 95.7839L49.1188 95.6316Z" fill="white"/>
<path d="M62.2118 95.6208V97.4152L59.6756 97.3065L61.1605 99.351L59.5672 100.308L58.3099 98.0134L57.0526 100.308L55.4919 99.351L56.9442 97.3065L54.4297 97.4261V95.6317L56.9442 95.773L55.4919 93.6958L57.0526 92.7388L58.3099 95.0335L59.5672 92.7388L61.1605 93.6958L59.6864 95.773L62.2118 95.6208Z" fill="white"/>
<path d="M75.3049 95.6099V97.4043L72.7686 97.2956L74.2535 99.3401L72.6602 100.297L71.403 98.0025L70.1457 100.297L68.5849 99.3401L70.0373 97.2956L67.5227 97.4152V95.6208L70.0373 95.7622L68.5849 93.685L70.1457 92.7279L71.403 95.0226L72.6602 92.7279L74.2535 93.685L72.7795 95.7622L75.3049 95.6099Z" fill="white"/>
<path d="M97.4698 95.5881V97.3826L94.9336 97.2738L96.4185 99.3184L94.8252 100.275L93.5679 97.9807L92.3106 100.275L90.7499 99.3184L92.2022 97.2738L89.6877 97.3935V95.599L92.2022 95.7404L90.7499 93.6632L92.3106 92.7062L93.5679 95.0009L94.8252 92.7062L96.4185 93.6632L94.9444 95.7404L97.4698 95.5881Z" fill="white"/>
<path d="M110.563 95.5881V97.3826L108.027 97.2738L109.512 99.3184L107.918 100.275L106.661 97.9807L105.404 100.275L103.843 99.3184L105.295 97.2738L102.781 97.3935V95.599L105.295 95.7404L103.843 93.6632L105.404 92.7062L106.661 95.0009L107.918 92.7062L109.512 93.6632L108.037 95.7404L110.563 95.5881Z" fill="white"/>
<path d="M123.656 95.5773V97.3717L121.109 97.2521L122.594 99.2966L121 100.254L119.743 97.959L118.486 100.254L116.925 99.2966L118.378 97.2521L115.863 97.3717V95.5773L118.378 95.7187L116.925 93.6415L118.486 92.6844L119.743 94.9791L121 92.6844L122.594 93.6415L121.12 95.7187L123.656 95.5773Z" fill="white"/>
<path d="M136.749 95.5664V97.3608L134.202 97.2521L135.687 99.2966L134.093 100.254L132.836 97.959L131.579 100.254L130.018 99.2966L131.471 97.2521L128.956 97.3717V95.5773L131.471 95.7187L130.018 93.6415L131.579 92.6844L132.836 94.9791L134.093 92.6844L135.687 93.6306L134.213 95.7078L136.749 95.5664Z" fill="white"/>
<path d="M158.914 95.5447V97.3391L156.378 97.2303L157.863 99.2749L156.269 100.232L155.012 97.9372L153.755 100.232L152.194 99.2749L153.646 97.2303L151.132 97.35V95.5555L153.646 95.6969L152.194 93.6197L153.755 92.6627L155.012 94.9574L156.269 92.6627L157.863 93.6197L156.389 95.6969L158.914 95.5447Z" fill="white"/>
<path d="M171.996 95.5447V97.3391L169.46 97.2303L170.945 99.2749L169.351 100.232L168.094 97.9372L166.837 100.232L165.276 99.2749L166.729 97.2303L164.214 97.35V95.5555L166.729 95.6969L165.276 93.6197L166.837 92.6627L168.094 94.9574L169.351 92.6627L170.945 93.6088L169.471 95.686L171.996 95.5447Z" fill="white"/>
<path d="M185.089 95.5338V97.3282L182.553 97.2195L184.038 99.264L182.445 100.221L181.187 97.9263L179.93 100.221L178.369 99.264L179.822 97.2195L177.307 97.3391V95.5447L179.822 95.686L178.369 93.6088L179.93 92.6518L181.187 94.9465L182.445 92.6518L184.038 93.6088L182.564 95.686L185.089 95.5338Z" fill="white"/>
<path d="M198.182 95.5229V97.3173L195.646 97.2086L197.131 99.2531L195.538 100.21L194.28 97.9155L193.023 100.21L191.462 99.2531L192.915 97.2086L190.4 97.3282V95.5338L192.915 95.6751L191.462 93.598L193.023 92.6409L194.28 94.9356L195.538 92.6409L197.131 93.598L195.657 95.6751L198.182 95.5229Z" fill="white"/>
<path d="M211.958 112.597V110.466L218.851 103.397C220.694 101.548 221.615 99.96 221.615 98.6332C221.615 97.5348 221.279 96.6757 220.607 96.0558C219.935 95.4359 219.122 95.1314 218.147 95.1314C216.304 95.1314 214.96 96.0123 214.126 97.7632L211.947 96.4799C212.554 95.2075 213.41 94.2505 214.494 93.598C215.578 92.9454 216.792 92.6192 218.104 92.6083C219.74 92.6083 221.16 93.1521 222.374 94.2287C223.588 95.3163 224.195 96.7627 224.195 98.6006C224.195 100.58 223.035 102.744 220.716 105.082L215.73 110.063L224.563 110.052V112.575L211.958 112.597Z" fill="white"/>
<path d="M236.28 101.004C237.776 101.287 238.99 101.928 239.943 102.94C240.897 103.951 241.374 105.224 241.374 106.779C241.374 108.682 240.724 110.183 239.423 111.292C238.123 112.401 236.54 112.945 234.676 112.945C233.191 112.945 231.869 112.608 230.709 111.923C229.56 111.238 228.736 110.259 228.249 108.965L230.427 107.671C231.002 109.487 232.421 110.389 234.676 110.389C235.89 110.389 236.876 110.074 237.635 109.432C238.393 108.802 238.784 107.91 238.773 106.768C238.773 105.626 238.394 104.734 237.624 104.093C236.865 103.451 235.879 103.125 234.665 103.125H233.993L232.963 101.526L237.483 95.3924L228.801 95.4033V92.9672L240.529 92.9563L240.518 95.2401L236.28 101.004Z" fill="white"/>
<path d="M260.656 106.398V108.834H258.282V112.565H255.692V108.834L245.731 108.845V106.409L252.733 92.9563H255.529L248.528 106.409H255.703V100.863H258.293V106.409L260.656 106.398Z" fill="white"/>
<path d="M270.866 100.591C272.709 100.591 274.269 101.135 275.548 102.222C276.827 103.31 277.467 104.821 277.467 106.746C277.467 108.649 276.816 110.15 275.516 111.26C274.215 112.369 272.633 112.913 270.768 112.913C269.284 112.913 267.95 112.554 266.78 111.836C265.609 111.118 264.786 110.074 264.319 108.715L266.52 107.453C266.78 108.41 267.289 109.128 268.026 109.628C268.774 110.128 269.685 110.368 270.758 110.368C271.982 110.368 272.98 110.052 273.749 109.411C274.508 108.78 274.887 107.888 274.887 106.746C274.887 105.604 274.508 104.713 273.738 104.071C272.969 103.429 271.993 103.103 270.801 103.103H265.273L265.967 92.9346L276.686 92.9237V95.3598L268.341 95.3706L268.005 100.58L270.866 100.591Z" fill="white"/>
<path d="M29.9453 166.278C28.8072 166.278 27.8642 165.897 27.1164 165.147C26.3685 164.396 26 163.461 26 162.363C26 161.264 26.3685 160.329 27.1164 159.579C27.8534 158.817 28.7964 158.448 29.9453 158.448C30.6389 158.448 31.2676 158.611 31.842 158.948C32.4165 159.274 32.8717 159.72 33.1968 160.286L32.3298 160.797C32.113 160.383 31.7878 160.046 31.3651 159.796C30.9424 159.546 30.4655 159.426 29.9453 159.426C29.0782 159.426 28.3628 159.709 27.8209 160.275C27.2681 160.84 26.9972 161.536 26.9972 162.385C26.9972 163.222 27.2681 163.918 27.8209 164.483C28.3737 165.049 29.0782 165.321 29.9453 165.321C30.4655 165.321 30.9316 165.201 31.3651 164.951C31.7878 164.701 32.113 164.375 32.3298 163.961L33.2077 164.462C32.8934 165.027 32.4381 165.473 31.8637 165.81C31.2676 166.115 30.6389 166.278 29.9453 166.278Z" fill="white"/>
<path d="M38.6595 160.731H39.5916V166.137H38.6595V165.212C38.1934 165.93 37.5106 166.278 36.6218 166.289C35.8631 166.289 35.2237 166.017 34.6926 165.462C34.1615 164.908 33.8905 164.244 33.8905 163.45C33.8905 162.656 34.1506 161.982 34.6817 161.438C35.2128 160.884 35.8523 160.612 36.611 160.612C37.4998 160.612 38.1826 160.971 38.6487 161.678V160.731H38.6595ZM36.7519 165.364C37.2938 165.364 37.749 165.179 38.1176 164.81C38.4861 164.44 38.6703 163.983 38.6703 163.429C38.6703 162.885 38.4861 162.428 38.1176 162.047C37.749 161.678 37.2938 161.493 36.7519 161.493C36.21 161.493 35.7656 161.678 35.3971 162.047C35.0286 162.417 34.8443 162.874 34.8443 163.429C34.8443 163.972 35.0286 164.429 35.3971 164.81C35.7547 165.179 36.21 165.364 36.7519 165.364Z" fill="white"/>
<path d="M41.9544 161.634C42.2579 160.96 42.8215 160.634 43.6344 160.634V161.612C43.1792 161.591 42.7782 161.71 42.453 161.982C42.1278 162.254 41.9544 162.678 41.9544 163.265V166.126H41.0223V160.721H41.9544V161.634Z" fill="white"/>
<path d="M48.7177 158.567H49.6607V166.137H48.7286V165.212C48.2625 165.93 47.5797 166.278 46.6909 166.278C45.9322 166.278 45.2927 166.006 44.7617 165.451C44.2306 164.897 43.9596 164.233 43.9596 163.439C43.9596 162.646 44.2197 161.971 44.7508 161.427C45.2819 160.873 45.9214 160.601 46.6801 160.601C47.5689 160.601 48.2517 160.96 48.7177 161.667V158.567ZM46.8102 165.364C47.3521 165.364 47.8073 165.179 48.1758 164.81C48.5443 164.44 48.7286 163.983 48.7286 163.429C48.7286 162.885 48.5443 162.417 48.1758 162.047C47.8073 161.678 47.3521 161.493 46.8102 161.493C46.2682 161.493 45.8238 161.678 45.4553 162.047C45.0868 162.417 44.9026 162.874 44.9026 163.429C44.9026 163.972 45.0868 164.429 45.4553 164.81C45.813 165.179 46.2682 165.364 46.8102 165.364Z" fill="white"/>
<path d="M58.5267 158.556H59.513V166.126H58.5267V162.722H54.8632V166.126H53.8661V158.556H54.8632V161.765H58.5267V158.556Z" fill="white"/>
<path d="M65.5826 165.43C65.0299 165.973 64.3579 166.256 63.5666 166.256C62.7754 166.256 62.1034 165.984 61.5615 165.44C61.0196 164.897 60.7378 164.222 60.7378 163.418C60.7378 162.613 61.0087 161.95 61.5615 161.395C62.1143 160.851 62.7754 160.568 63.5666 160.568C64.3579 160.568 65.0299 160.84 65.5826 161.384C66.1354 161.928 66.4172 162.602 66.4172 163.407C66.4172 164.212 66.1354 164.886 65.5826 165.43ZM63.5775 165.343C64.1194 165.343 64.5638 165.158 64.9323 164.788C65.3008 164.418 65.4851 163.961 65.4851 163.418C65.4851 162.874 65.3008 162.417 64.9323 162.047C64.5638 161.678 64.1086 161.493 63.5775 161.504C63.0464 161.504 62.602 161.688 62.2335 162.058C61.865 162.428 61.6807 162.885 61.6807 163.429C61.6807 163.972 61.865 164.429 62.2335 164.799C62.5912 165.158 63.0464 165.343 63.5775 165.343Z" fill="white"/>
<path d="M67.5227 166.115V158.23H68.4549L68.4657 166.115H67.5227Z" fill="white"/>
<path d="M74.3511 158.546H75.2832V166.115H74.3511V165.19C73.885 165.908 73.2022 166.256 72.3134 166.267C71.5547 166.267 70.9152 165.995 70.3841 165.44C69.853 164.886 69.5821 164.222 69.5821 163.429C69.5821 162.635 69.8422 161.96 70.3733 161.417C70.9044 160.873 71.5439 160.59 72.3026 160.59C73.1913 160.59 73.8742 160.949 74.3402 161.656L74.3511 158.546ZM72.4326 165.343C72.9745 165.343 73.4298 165.158 73.7983 164.788C74.1668 164.418 74.3511 163.961 74.3511 163.407C74.3511 162.863 74.1668 162.395 73.7983 162.026C73.4298 161.656 72.9745 161.471 72.4326 161.471C71.8907 161.471 71.4463 161.656 71.0778 162.026C70.7093 162.395 70.525 162.852 70.525 163.407C70.525 163.951 70.7093 164.407 71.0778 164.788C71.4463 165.158 71.9015 165.343 72.4326 165.343Z" fill="white"/>
<path d="M77.3642 163.831C77.4617 164.309 77.6785 164.69 78.0254 164.951C78.3722 165.212 78.8057 165.353 79.3151 165.353C80.0305 165.353 80.5399 165.092 80.8651 164.56L81.6671 165.016C81.1469 165.832 80.3557 166.234 79.2935 166.234C78.4372 166.234 77.7436 165.963 77.2125 165.43C76.6814 164.897 76.4104 164.212 76.4104 163.396C76.4104 162.58 76.6705 161.906 77.1908 161.362C77.711 160.818 78.3939 160.547 79.2284 160.547C80.0197 160.547 80.6591 160.829 81.1577 161.384C81.6563 161.939 81.9056 162.613 81.9056 163.396C81.9056 163.537 81.8947 163.668 81.8731 163.82L77.3642 163.831ZM79.2284 161.449C78.7299 161.449 78.3072 161.591 77.982 161.873C77.6568 162.156 77.4509 162.537 77.3642 163.015H80.9626C80.8867 162.504 80.6808 162.113 80.3557 161.852C80.0305 161.58 79.662 161.449 79.2284 161.449Z" fill="white"/>
<path d="M83.9216 161.601C84.225 160.927 84.7887 160.601 85.6015 160.601V161.58C85.1463 161.558 84.7453 161.678 84.4201 161.949C84.095 162.221 83.9216 162.646 83.9216 163.233V166.093H82.9894V160.688H83.9324V161.601H83.9216Z" fill="white"/>
<path d="M91.8879 160.557C92.5166 160.557 93.026 160.753 93.4053 161.156C93.7847 161.558 93.9798 162.102 93.9798 162.787V166.104H93.0368V162.841C93.0368 162.406 92.9176 162.058 92.6791 161.819C92.4407 161.58 92.1155 161.46 91.7037 161.46C91.2376 161.46 90.8583 161.612 90.5765 161.895C90.2838 162.189 90.1429 162.635 90.1429 163.244V166.104H89.2V160.699H90.1321V161.482C90.5331 160.862 91.1075 160.557 91.8879 160.557Z" fill="white"/>
<path d="M99.7459 160.688H100.678V166.093H99.7351V165.169C99.269 165.886 98.5862 166.234 97.6975 166.234C96.9388 166.234 96.2993 165.963 95.7682 165.408C95.2371 164.853 94.9661 164.19 94.9661 163.396C94.9661 162.602 95.2263 161.928 95.7573 161.384C96.2884 160.829 96.9279 160.557 97.6866 160.557C98.5754 160.557 99.2582 160.916 99.7243 161.623L99.7459 160.688ZM97.8275 165.321C98.3694 165.321 98.8247 165.136 99.1932 164.766C99.5617 164.396 99.7459 163.94 99.7459 163.385C99.7459 162.841 99.5617 162.374 99.1932 162.004C98.8247 161.634 98.3694 161.449 97.8275 161.449C97.2856 161.449 96.8412 161.634 96.4727 162.004C96.1042 162.374 95.9199 162.83 95.9199 163.385C95.9199 163.929 96.1042 164.386 96.4727 164.766C96.8412 165.136 97.2856 165.321 97.8275 165.321Z" fill="white"/>
<path d="M107.918 160.536C108.525 160.536 109.013 160.731 109.381 161.123C109.75 161.514 109.945 162.047 109.945 162.722V166.082H109.013V162.754C109.013 162.341 108.905 162.015 108.688 161.786C108.471 161.558 108.189 161.438 107.832 161.438C107.431 161.438 107.105 161.58 106.867 161.841C106.628 162.113 106.509 162.526 106.509 163.081V166.082H105.566V162.754C105.566 162.341 105.469 162.015 105.263 161.786C105.057 161.558 104.775 161.438 104.428 161.438C104.038 161.438 103.702 161.58 103.442 161.852C103.182 162.124 103.052 162.537 103.052 163.081V166.082H102.109V160.677H103.041V161.406C103.409 160.829 103.94 160.536 104.645 160.536C105.371 160.536 105.902 160.84 106.227 161.449C106.596 160.851 107.16 160.547 107.918 160.536Z" fill="white"/>
<path d="M111.896 163.809C111.994 164.288 112.21 164.668 112.557 164.929C112.904 165.201 113.338 165.332 113.847 165.332C114.562 165.332 115.072 165.071 115.397 164.538L116.199 164.995C115.679 165.81 114.887 166.213 113.825 166.213C112.969 166.213 112.275 165.941 111.744 165.408C111.213 164.875 110.942 164.19 110.942 163.374C110.942 162.559 111.202 161.884 111.723 161.34C112.243 160.797 112.926 160.525 113.76 160.525C114.551 160.525 115.191 160.808 115.69 161.362C116.188 161.917 116.437 162.591 116.437 163.374C116.437 163.516 116.427 163.646 116.405 163.798L111.896 163.809ZM113.76 161.417C113.262 161.417 112.839 161.558 112.514 161.841C112.189 162.124 111.983 162.504 111.896 162.983H115.494C115.419 162.472 115.213 162.08 114.887 161.819C114.573 161.558 114.194 161.417 113.76 161.417Z" fill="white"/>
<path d="M258.781 165.027H262.282V165.973H257.784V158.404H262.228V159.361H258.781V161.688H261.957V162.624H258.781V165.027Z" fill="white"/>
<path d="M268.059 165.963H266.964L265.447 163.918L263.94 165.963H262.845L264.905 163.178L262.965 160.557H264.07L265.458 162.428L266.845 160.547H267.94L265.999 163.168L268.059 165.963Z" fill="white"/>
<path d="M271.906 160.427C272.665 160.427 273.305 160.699 273.836 161.253C274.367 161.808 274.638 162.482 274.638 163.265C274.638 164.059 274.378 164.734 273.847 165.277C273.316 165.832 272.676 166.104 271.917 166.104C271.029 166.104 270.346 165.745 269.88 165.038V168.127H268.948L268.937 160.557H269.88V161.482C270.335 160.775 271.018 160.427 271.906 160.427ZM271.787 165.201C272.329 165.201 272.774 165.016 273.142 164.647C273.511 164.277 273.695 163.82 273.695 163.265C273.695 162.722 273.511 162.254 273.142 161.884C272.774 161.514 272.318 161.33 271.787 161.33C271.245 161.33 270.79 161.514 270.422 161.884C270.053 162.254 269.869 162.711 269.869 163.265C269.869 163.809 270.053 164.266 270.422 164.647C270.79 165.016 271.245 165.201 271.787 165.201Z" fill="white"/>
<path d="M276.22 159.579C276.036 159.579 275.895 159.513 275.765 159.394C275.646 159.274 275.581 159.122 275.581 158.948C275.581 158.774 275.646 158.622 275.765 158.502C275.884 158.372 276.036 158.317 276.22 158.317C276.394 158.317 276.535 158.382 276.665 158.502C276.784 158.633 276.849 158.774 276.849 158.948C276.849 159.122 276.784 159.263 276.665 159.394C276.545 159.513 276.394 159.579 276.22 159.579ZM275.754 165.963V160.557H276.697V165.963H275.754Z" fill="white"/>
<path d="M279.049 161.46C279.353 160.786 279.916 160.46 280.729 160.46V161.438C280.274 161.417 279.873 161.536 279.548 161.808C279.223 162.08 279.049 162.504 279.049 163.091V165.952H278.117V160.547H279.06V161.46H279.049Z" fill="white"/>
<path d="M285.531 160.557H286.528L284.338 166.3C284.111 166.909 283.786 167.376 283.374 167.703C282.962 168.018 282.485 168.17 281.943 168.127V167.257C282.604 167.311 283.081 166.941 283.385 166.147L283.482 165.941L281.13 160.557H282.127L283.927 164.701L285.531 160.557Z" fill="white"/>
<path d="M293.042 158.382C294.071 158.382 294.917 158.752 295.6 159.481C296.283 160.209 296.619 161.101 296.619 162.167C296.619 163.222 296.283 164.125 295.6 164.853C294.917 165.582 294.071 165.952 293.042 165.952H290.105L290.094 158.382H293.042ZM293.042 164.995C293.811 164.995 294.44 164.723 294.928 164.179C295.415 163.635 295.654 162.961 295.654 162.156C295.654 161.351 295.405 160.677 294.917 160.133C294.429 159.59 293.8 159.329 293.031 159.329H291.091V164.995H293.042Z" fill="white"/>
<path d="M302.2 160.536H303.133V165.941H302.19V165.016C301.724 165.734 301.041 166.082 300.152 166.093C299.393 166.093 298.754 165.821 298.223 165.266C297.692 164.712 297.421 164.048 297.421 163.255C297.421 162.461 297.681 161.786 298.212 161.243C298.743 160.688 299.382 160.416 300.141 160.416C301.03 160.416 301.713 160.775 302.179 161.482L302.2 160.536ZM300.282 165.179C300.824 165.179 301.279 164.995 301.648 164.625C302.016 164.255 302.2 163.798 302.2 163.244C302.2 162.7 302.016 162.232 301.648 161.862C301.279 161.493 300.824 161.308 300.282 161.308C299.74 161.308 299.296 161.493 298.927 161.862C298.559 162.232 298.374 162.689 298.374 163.244C298.374 163.787 298.559 164.244 298.927 164.625C299.296 164.995 299.74 165.179 300.282 165.179Z" fill="white"/>
<path d="M307.479 161.449H306.048V164.375C306.048 164.647 306.102 164.831 306.2 164.94C306.308 165.049 306.46 165.114 306.677 165.114C306.894 165.114 307.154 165.114 307.479 165.092V165.941C306.655 166.049 306.059 165.984 305.68 165.745C305.3 165.506 305.105 165.049 305.105 164.375V161.449H304.043V160.547H305.105V159.318L306.037 159.035V160.547H307.468L307.479 161.449Z" fill="white"/>
<path d="M308.985 163.668C309.083 164.146 309.3 164.527 309.647 164.788C309.993 165.06 310.427 165.19 310.936 165.19C311.652 165.19 312.161 164.929 312.486 164.396L313.288 164.853C312.768 165.669 311.977 166.071 310.915 166.071C310.058 166.071 309.365 165.799 308.834 165.266C308.303 164.734 308.032 164.048 308.032 163.233C308.032 162.417 308.292 161.743 308.812 161.199C309.332 160.655 310.015 160.383 310.85 160.383C311.641 160.383 312.28 160.666 312.79 161.221C313.288 161.775 313.538 162.45 313.538 163.233C313.538 163.374 313.527 163.505 313.505 163.657L308.985 163.668ZM310.839 161.275C310.34 161.275 309.918 161.417 309.592 161.699C309.267 161.982 309.061 162.363 308.975 162.841H312.573C312.497 162.33 312.291 161.939 311.966 161.678C311.652 161.417 311.272 161.275 310.839 161.275Z" fill="white"/>
<path d="M265.458 186.985C264.677 188.072 263.582 188.616 262.184 188.627C260.775 188.627 259.681 188.083 258.9 186.995C258.12 185.908 257.73 184.451 257.73 182.634C257.73 180.818 258.12 179.361 258.9 178.273C259.681 177.186 260.775 176.631 262.173 176.631C263.582 176.631 264.666 177.175 265.447 178.263C266.227 179.35 266.617 180.807 266.617 182.624C266.628 184.44 266.238 185.897 265.458 186.985ZM260.017 185.951C260.526 186.734 261.241 187.126 262.173 187.126C263.106 187.126 263.832 186.734 264.341 185.951C264.851 185.168 265.111 184.059 265.1 182.624C265.089 181.188 264.84 180.079 264.33 179.296C263.821 178.513 263.095 178.11 262.163 178.11C261.23 178.11 260.504 178.502 260.006 179.285C259.496 180.068 259.247 181.177 259.247 182.624C259.258 184.059 259.518 185.168 260.017 185.951Z" fill="white"/>
<path d="M267.744 188.409V187.148L271.809 182.982C272.893 181.895 273.435 180.96 273.435 180.177C273.435 179.524 273.24 179.024 272.839 178.654C272.448 178.295 271.961 178.11 271.386 178.11C270.302 178.11 269.511 178.632 269.013 179.665L267.723 178.904C268.08 178.154 268.59 177.588 269.229 177.197C269.869 176.805 270.584 176.62 271.365 176.62C272.329 176.62 273.175 176.936 273.89 177.577C274.605 178.219 274.963 179.078 274.963 180.155C274.963 181.329 274.28 182.602 272.904 183.972L269.966 186.919H275.18V188.409H267.744Z" fill="white"/>
<path d="M277.326 190.03L276.47 190.051L283.049 175.196L283.905 175.174L277.326 190.03Z" fill="white"/>
<path d="M289.725 181.558C290.603 181.721 291.329 182.102 291.882 182.7C292.446 183.298 292.727 184.048 292.727 184.962C292.727 186.082 292.348 186.974 291.579 187.626C290.809 188.279 289.877 188.605 288.782 188.605C287.904 188.605 287.124 188.409 286.441 188.007C285.758 187.604 285.281 187.028 284.989 186.267L286.268 185.505C286.604 186.571 287.438 187.104 288.771 187.104C289.487 187.104 290.072 186.919 290.516 186.539C290.961 186.158 291.188 185.636 291.188 184.973C291.188 184.298 290.961 183.776 290.516 183.396C290.061 183.015 289.487 182.83 288.771 182.83H288.381L287.774 181.884L290.441 178.263H285.314V176.827H292.229L292.218 178.176L289.725 181.558Z" fill="white"/>
<path d="M301.81 186.963C301.03 188.05 299.935 188.605 298.537 188.605C297.128 188.605 296.033 188.061 295.253 186.974C294.472 185.886 294.082 184.429 294.082 182.613C294.082 180.796 294.472 179.339 295.253 178.252C296.033 177.164 297.128 176.62 298.526 176.609C299.935 176.609 301.019 177.153 301.799 178.241C302.58 179.328 302.97 180.786 302.97 182.602C302.97 184.418 302.591 185.864 301.81 186.963ZM296.38 185.919C296.89 186.702 297.605 187.093 298.537 187.093C299.469 187.093 300.195 186.702 300.705 185.919C301.214 185.136 301.474 184.026 301.474 182.602C301.474 181.166 301.214 180.057 300.705 179.274C300.195 178.491 299.469 178.089 298.537 178.099C297.605 178.099 296.879 178.491 296.38 179.274C295.871 180.057 295.621 181.166 295.621 182.613C295.621 184.037 295.871 185.136 296.38 185.919Z" fill="white"/>
<path d="M324.94 34.9472H321.439C320.344 34.9472 319.521 35.2517 319.054 36.3284L312.335 51.6517H317.104C317.104 51.6517 317.895 49.5963 318.057 49.1613H323.867C324.008 49.7377 324.42 51.6517 324.42 51.6517H328.636L324.94 34.9472ZM319.358 45.7355C319.726 44.7785 321.135 41.0483 321.135 41.0483C321.135 41.0483 321.526 40.0695 321.753 39.4713L322.057 40.9069C322.057 40.9069 322.935 44.8873 323.108 45.7355H319.358Z" fill="white"/>
<path d="M306.287 39.591C306.276 40.3631 307.262 40.8852 308.844 41.6573C311.457 42.8536 312.671 44.2891 312.638 46.2032C312.616 49.6724 309.516 51.9128 304.758 51.9128C302.721 51.891 300.77 51.4777 299.708 51.021L300.347 47.2799L300.921 47.5409C302.406 48.1608 303.382 48.4218 305.192 48.4218C306.493 48.4218 307.891 47.9106 307.912 46.7905C307.923 46.0509 307.316 45.5289 305.56 44.7133C303.826 43.9194 301.55 42.5817 301.583 40.1891C301.604 36.9483 304.769 34.6645 309.246 34.6645C311.001 34.6645 312.421 35.0342 313.31 35.3714L312.692 38.982L312.28 38.7971C311.435 38.46 310.362 38.1446 308.877 38.1554C307.11 38.1446 306.287 38.895 306.287 39.591Z" fill="white"/>
<path d="M299.686 34.9581L296.857 51.6518H292.326L292.879 48.4109L293.779 43.082L295.144 34.969L299.686 34.9581Z" fill="white"/>
<path d="M283.406 43.5605C281.889 39.6997 278.269 36.4915 272.795 35.1647L272.849 34.8276H279.884C280.838 34.8711 281.607 35.1647 281.867 36.187L283.406 43.5605Z" fill="white"/>
<path d="M293.313 34.9799L286.17 51.6409H281.379L277.315 37.7204C280.231 39.6019 282.713 42.5817 283.591 44.648L284.067 46.3772L288.511 34.9799H293.313Z" fill="white"/>
<path d="M62.6779 36.1435L62.6887 55.5016C62.6887 57.7854 60.8245 59.656 58.5592 59.656L31.9179 59.6778C29.6309 59.6778 27.7667 57.8072 27.7667 55.5342L27.745 36.1761C27.745 33.8814 29.6093 32.0218 31.8854 32.0218L58.5375 32C60.8136 32 62.6779 33.8488 62.6779 36.1435Z" fill="#F6C859"/>
<path d="M41.2174 55.9802C41.0657 55.9802 40.9248 55.904 40.8598 55.7627C40.7622 55.5669 40.8381 55.3168 41.0332 55.2189C41.6185 54.9144 42.4097 54.3489 42.8757 53.381C43.461 52.1412 43.3093 50.7926 43.06 50.673C42.995 50.6404 42.7565 50.7709 42.6048 50.847C42.2254 51.0428 41.6943 51.3146 41.0874 51.0971C40.4912 50.8905 40.1986 50.3576 40.0577 50.0966C39.1364 48.4109 38.8546 44.039 39.8192 41.864C40.1444 41.1462 40.5779 40.7112 41.1199 40.5807C41.6726 40.4502 42.1279 40.6785 42.4855 40.8743C42.7782 41.0266 42.9299 41.0918 43.0275 41.0374C43.4068 40.8091 43.396 39.417 42.8649 38.3186C42.3988 37.3398 41.6076 36.7743 41.0223 36.4807C40.8272 36.3828 40.7405 36.1327 40.8489 35.9369C40.9465 35.7411 41.1957 35.6541 41.3908 35.7629C42.0845 36.1218 43.0383 36.796 43.5911 37.9815C44.1438 39.1451 44.404 41.1571 43.4393 41.7443C42.9516 42.038 42.4855 41.7987 42.117 41.6138C41.8352 41.4724 41.5643 41.3311 41.3041 41.3963C40.9465 41.4833 40.708 41.8857 40.5563 42.212C39.7109 44.1152 39.9601 48.2478 40.7622 49.7268C40.9031 49.977 41.0657 50.2489 41.3475 50.3467C41.6185 50.4446 41.8786 50.325 42.2363 50.1401C42.5939 49.9552 42.9841 49.7595 43.4068 49.9552C44.3173 50.4011 44.2522 52.3478 43.6019 53.7398C43.0383 54.9252 42.0954 55.5995 41.4017 55.9584C41.3366 55.9693 41.2716 55.9802 41.2174 55.9802Z" fill="#7D662D"/>
<path d="M39.9926 42.5926H32.7199C32.4923 42.5926 32.3189 42.4077 32.3189 42.1902C32.3189 41.9727 32.4923 41.7878 32.7091 41.7878H39.9818C40.2094 41.7878 40.3828 41.9727 40.3828 42.1902C40.3937 42.4077 40.2203 42.5926 39.9926 42.5926Z" fill="#7D662D"/>
<path d="M39.9926 49.9008H32.7199C32.4923 49.9008 32.3189 49.716 32.3189 49.4985C32.3189 49.2701 32.5032 49.0961 32.7199 49.0961H39.9926C40.2203 49.0961 40.3937 49.2809 40.3937 49.4985C40.4045 49.716 40.2203 49.9008 39.9926 49.9008Z" fill="#7D662D"/>
<path d="M49.7041 55.9693C49.639 55.9693 49.574 55.9584 49.5198 55.9258C48.8261 55.5669 47.8723 54.8926 47.3196 53.7072C46.6584 52.3151 46.6042 50.3685 47.5038 49.9226C47.9265 49.7159 48.3275 49.9226 48.6744 50.0966C49.0429 50.2815 49.303 50.4011 49.5631 50.3032C49.8666 50.1945 50.04 49.8791 50.1484 49.6833C50.9505 48.2043 51.1889 44.0608 50.3435 42.1685C50.1918 41.8422 49.9533 41.4289 49.5957 41.3528C49.3789 41.2984 49.238 41.0809 49.2922 40.8634C49.3464 40.6459 49.5631 40.5154 49.7799 40.5589C50.3219 40.6894 50.7554 41.1135 51.0806 41.8313C52.056 44.0064 51.7742 48.3892 50.8529 50.064C50.712 50.325 50.4194 50.8579 49.8233 51.0645C49.2163 51.282 48.6852 51.0101 48.3059 50.8144C48.1541 50.7382 47.9157 50.6186 47.8506 50.6403C47.6122 50.76 47.4496 52.1085 48.0457 53.3483C48.5118 54.3271 49.303 54.8926 49.8883 55.1862C50.0834 55.2841 50.1701 55.5343 50.0617 55.73C49.9967 55.8931 49.8558 55.9693 49.7041 55.9693Z" fill="#7D662D"/>
<path d="M48.0783 40.9613C47.9048 40.9613 47.7531 40.8525 47.6989 40.6894C46.8318 38.0793 48.8586 36.0674 49.509 35.7411C49.7041 35.6324 49.9533 35.7194 50.0509 35.9151C50.1484 36.1109 50.0726 36.361 49.8775 36.4589C49.5848 36.6112 47.7206 38.2098 48.4576 40.4284C48.5335 40.6459 48.4143 40.8743 48.1975 40.9395C48.165 40.9613 48.1216 40.9613 48.0783 40.9613Z" fill="#7D662D"/>
<path d="M58.1907 42.5817H50.918C50.6904 42.5817 50.5169 42.3968 50.5169 42.1793C50.5169 41.9618 50.7012 41.7769 50.918 41.7769H58.1907C58.4183 41.7769 58.5917 41.9618 58.5917 42.1793C58.5917 42.3968 58.4074 42.5817 58.1907 42.5817Z" fill="#7D662D"/>
<path d="M58.1907 49.8791H50.918C50.6904 49.8791 50.5169 49.6942 50.5169 49.4767C50.5169 49.2483 50.7012 49.0743 50.918 49.0743H58.1907C58.4183 49.0743 58.5917 49.2592 58.5917 49.4767C58.5917 49.7051 58.4183 49.8791 58.1907 49.8791Z" fill="#7D662D"/>
<path d="M29.1002 189.772V182.874H31.1442V189.772C31.1442 190.437 30.9983 191.009 30.7067 191.487C30.415 191.961 30.0162 192.326 29.5104 192.581C29.0091 192.836 28.444 192.964 27.8151 192.964C27.1634 192.964 26.5869 192.855 26.0856 192.636C25.5843 192.417 25.1901 192.082 24.903 191.631C24.6158 191.175 24.4723 190.599 24.4723 189.901H26.5299C26.5299 190.266 26.58 190.555 26.6803 190.77C26.7851 190.984 26.9332 191.136 27.1246 191.228C27.316 191.319 27.5462 191.364 27.8151 191.364C28.0748 191.364 28.3004 191.303 28.4918 191.18C28.6832 191.057 28.8313 190.877 28.9362 190.64C29.0455 190.403 29.1002 190.113 29.1002 189.772ZM32.4567 189.204V189.061C32.4567 188.518 32.5341 188.019 32.6891 187.564C32.844 187.103 33.0696 186.704 33.3658 186.367C33.6621 186.03 34.0267 185.768 34.4596 185.581C34.8925 185.39 35.3893 185.294 35.9498 185.294C36.5104 185.294 37.0094 185.39 37.4469 185.581C37.8844 185.768 38.2513 186.03 38.5475 186.367C38.8483 186.704 39.0761 187.103 39.2311 187.564C39.386 188.019 39.4635 188.518 39.4635 189.061V189.204C39.4635 189.742 39.386 190.241 39.2311 190.701C39.0761 191.157 38.8483 191.556 38.5475 191.897C38.2513 192.235 37.8867 192.497 37.4537 192.684C37.0208 192.87 36.524 192.964 35.9635 192.964C35.403 192.964 34.9039 192.87 34.4664 192.684C34.0335 192.497 33.6666 192.235 33.3658 191.897C33.0696 191.556 32.844 191.157 32.6891 190.701C32.5341 190.241 32.4567 189.742 32.4567 189.204ZM34.4254 189.061V189.204C34.4254 189.514 34.4528 189.803 34.5074 190.072C34.5621 190.341 34.6487 190.578 34.7672 190.783C34.8903 190.984 35.0498 191.141 35.2457 191.255C35.4417 191.369 35.6809 191.426 35.9635 191.426C36.2369 191.426 36.4716 191.369 36.6676 191.255C36.8636 191.141 37.0208 190.984 37.1393 190.783C37.2578 190.578 37.3444 190.341 37.399 190.072C37.4583 189.803 37.4879 189.514 37.4879 189.204V189.061C37.4879 188.76 37.4583 188.477 37.399 188.213C37.3444 187.944 37.2555 187.707 37.1324 187.502C37.014 187.292 36.8567 187.128 36.6608 187.01C36.4648 186.891 36.2278 186.832 35.9498 186.832C35.6718 186.832 35.4349 186.891 35.2389 187.01C35.0475 187.128 34.8903 187.292 34.7672 187.502C34.6487 187.707 34.5621 187.944 34.5074 188.213C34.4528 188.477 34.4254 188.76 34.4254 189.061ZM44.6725 190.783C44.6725 190.642 44.6315 190.514 44.5494 190.4C44.4674 190.286 44.3147 190.182 44.0914 190.086C43.8727 189.986 43.5559 189.895 43.1412 189.813C42.7675 189.73 42.4189 189.628 42.0953 189.505C41.7763 189.377 41.4983 189.225 41.2614 189.047C41.0289 188.869 40.8466 188.66 40.7145 188.418C40.5823 188.172 40.5162 187.892 40.5162 187.577C40.5162 187.267 40.5823 186.976 40.7145 186.702C40.8512 186.429 41.0449 186.187 41.2955 185.978C41.5507 185.763 41.8606 185.597 42.2252 185.479C42.5944 185.355 43.0091 185.294 43.4694 185.294C44.1119 185.294 44.6634 185.397 45.1237 185.602C45.5885 185.807 45.944 186.089 46.1901 186.449C46.4407 186.805 46.566 187.21 46.566 187.666H44.5973C44.5973 187.475 44.5563 187.304 44.4742 187.153C44.3968 186.998 44.2737 186.878 44.1051 186.791C43.941 186.7 43.7268 186.654 43.4625 186.654C43.2438 186.654 43.0546 186.693 42.8951 186.771C42.7356 186.843 42.6126 186.944 42.526 187.071C42.444 187.194 42.403 187.331 42.403 187.481C42.403 187.595 42.4257 187.698 42.4713 187.789C42.5214 187.876 42.6012 187.955 42.7106 188.028C42.8199 188.101 42.9612 188.17 43.1344 188.233C43.3121 188.293 43.5309 188.347 43.7906 188.397C44.3239 188.507 44.8001 188.65 45.2194 188.828C45.6386 189.001 45.9713 189.238 46.2174 189.539C46.4635 189.835 46.5865 190.225 46.5865 190.708C46.5865 191.036 46.5136 191.337 46.3678 191.61C46.222 191.884 46.0123 192.123 45.7389 192.328C45.4655 192.529 45.1373 192.686 44.7545 192.8C44.3763 192.909 43.9502 192.964 43.4762 192.964C42.788 192.964 42.2047 192.841 41.7262 192.595C41.2522 192.349 40.8922 192.036 40.6461 191.658C40.4046 191.275 40.2838 190.883 40.2838 190.482H42.15C42.1591 190.751 42.2275 190.968 42.3551 191.132C42.4873 191.296 42.6536 191.414 42.8541 191.487C43.0592 191.56 43.2802 191.597 43.5172 191.597C43.7724 191.597 43.9843 191.563 44.153 191.494C44.3216 191.421 44.4492 191.326 44.5358 191.207C44.6269 191.084 44.6725 190.943 44.6725 190.783ZM49.7858 182.327V192.827H47.817V182.327H49.7858ZM49.5055 188.869H48.9655C48.97 188.354 49.0384 187.88 49.1705 187.447C49.3027 187.01 49.4918 186.632 49.7379 186.313C49.984 185.989 50.278 185.738 50.6198 185.561C50.9661 185.383 51.3489 185.294 51.7682 185.294C52.1328 185.294 52.4632 185.346 52.7594 185.451C53.0602 185.551 53.3177 185.716 53.5319 185.943C53.7506 186.167 53.9192 186.461 54.0377 186.825C54.1562 187.19 54.2155 187.632 54.2155 188.151V192.827H52.233V188.138C52.233 187.81 52.1852 187.552 52.0895 187.365C51.9983 187.174 51.8639 187.039 51.6862 186.962C51.513 186.88 51.2988 186.839 51.0436 186.839C50.761 186.839 50.5195 186.891 50.319 186.996C50.123 187.101 49.9658 187.247 49.8473 187.434C49.7288 187.616 49.6422 187.83 49.5875 188.076C49.5328 188.322 49.5055 188.587 49.5055 188.869ZM60.0875 191.057V185.431H62.0563V192.827H60.2037L60.0875 191.057ZM60.3063 189.539L60.8873 189.525C60.8873 190.018 60.8304 190.476 60.7164 190.899C60.6025 191.319 60.4316 191.683 60.2037 191.993C59.9759 192.299 59.6888 192.538 59.3424 192.711C58.9961 192.88 58.5882 192.964 58.1188 192.964C57.7587 192.964 57.4261 192.914 57.1207 192.814C56.8199 192.709 56.5602 192.547 56.3414 192.328C56.1272 192.105 55.9586 191.82 55.8356 191.474C55.7171 191.123 55.6578 190.701 55.6578 190.209V185.431H57.6266V190.223C57.6266 190.441 57.6517 190.626 57.7018 190.776C57.7565 190.927 57.8317 191.05 57.9274 191.146C58.0231 191.241 58.1347 191.31 58.2623 191.351C58.3945 191.392 58.5403 191.412 58.6998 191.412C59.1054 191.412 59.4244 191.33 59.6569 191.166C59.8938 191.002 60.0602 190.779 60.1559 190.496C60.2561 190.209 60.3063 189.89 60.3063 189.539ZM67.5524 191.159V187.864C67.5524 187.627 67.5136 187.425 67.4362 187.256C67.3587 187.083 67.2379 186.948 67.0739 186.853C66.9143 186.757 66.707 186.709 66.4518 186.709C66.233 186.709 66.0439 186.748 65.8844 186.825C65.7249 186.898 65.6018 187.005 65.5153 187.147C65.4287 187.283 65.3854 187.445 65.3854 187.632H63.4166C63.4166 187.317 63.4895 187.019 63.6354 186.736C63.7812 186.454 63.9931 186.205 64.2711 185.991C64.5491 185.772 64.8795 185.602 65.2623 185.479C65.6497 185.355 66.0826 185.294 66.5612 185.294C67.1354 185.294 67.6458 185.39 68.0924 185.581C68.539 185.772 68.8899 186.06 69.1451 186.442C69.4049 186.825 69.5348 187.304 69.5348 187.878V191.043C69.5348 191.449 69.5599 191.781 69.61 192.041C69.6601 192.296 69.733 192.52 69.8287 192.711V192.827H67.8395C67.7438 192.627 67.6709 192.376 67.6207 192.075C67.5752 191.77 67.5524 191.465 67.5524 191.159ZM67.8121 188.322L67.8258 189.437H66.7252C66.4655 189.437 66.2399 189.466 66.0485 189.525C65.8571 189.585 65.6998 189.669 65.5768 189.778C65.4537 189.883 65.3626 190.006 65.3033 190.147C65.2487 190.289 65.2213 190.444 65.2213 190.612C65.2213 190.781 65.2601 190.934 65.3375 191.07C65.415 191.203 65.5267 191.307 65.6725 191.385C65.8183 191.458 65.9892 191.494 66.1852 191.494C66.4814 191.494 66.7389 191.435 66.9576 191.316C67.1764 191.198 67.345 191.052 67.4635 190.879C67.5865 190.706 67.6503 190.542 67.6549 190.387L68.1744 191.221C68.1015 191.408 68.0013 191.601 67.8737 191.802C67.7506 192.002 67.5934 192.191 67.402 192.369C67.2106 192.542 66.9804 192.686 66.7115 192.8C66.4427 192.909 66.1237 192.964 65.7545 192.964C65.2851 192.964 64.859 192.87 64.4762 192.684C64.0979 192.492 63.7972 192.23 63.5739 191.897C63.3551 191.56 63.2457 191.177 63.2457 190.749C63.2457 190.362 63.3186 190.018 63.4645 189.717C63.6103 189.416 63.8245 189.163 64.1071 188.958C64.3942 188.748 64.7519 188.591 65.1803 188.486C65.6087 188.377 66.1054 188.322 66.6705 188.322H67.8121ZM76.8424 182.874V192.827H74.7985V182.874H76.8424ZM80.609 182.32V192.827H78.6403V182.32H80.609ZM85.2711 185.431L82.0582 189.095L80.3356 190.838L79.6178 189.416L80.985 187.68L82.9059 185.431H85.2711ZM83.2272 192.827L81.0397 189.409L82.4 188.22L85.4967 192.827H83.2272ZM89.3864 192.964C88.8121 192.964 88.2972 192.873 87.8414 192.69C87.3857 192.504 86.9983 192.246 86.6793 191.918C86.3649 191.59 86.1233 191.209 85.9547 190.776C85.7861 190.339 85.7018 189.874 85.7018 189.382V189.108C85.7018 188.548 85.7815 188.035 85.941 187.57C86.1005 187.105 86.3284 186.702 86.6246 186.36C86.9254 186.019 87.29 185.757 87.7184 185.574C88.1468 185.387 88.6298 185.294 89.1676 185.294C89.6917 185.294 90.1565 185.381 90.5621 185.554C90.9677 185.727 91.3073 185.973 91.5807 186.292C91.8587 186.611 92.0683 186.994 92.2096 187.44C92.3509 187.883 92.4215 188.375 92.4215 188.917V189.737H86.5426V188.425H90.4869V188.274C90.4869 188.001 90.4368 187.757 90.3365 187.543C90.2408 187.324 90.095 187.151 89.899 187.023C89.7031 186.896 89.4524 186.832 89.1471 186.832C88.8873 186.832 88.664 186.889 88.4772 187.003C88.2903 187.117 88.1377 187.276 88.0192 187.481C87.9052 187.687 87.8186 187.928 87.7594 188.206C87.7047 188.48 87.6774 188.78 87.6774 189.108V189.382C87.6774 189.678 87.7184 189.952 87.8004 190.202C87.887 190.453 88.0078 190.669 88.1627 190.852C88.3222 191.034 88.5136 191.175 88.7369 191.275C88.9648 191.376 89.2223 191.426 89.5094 191.426C89.8649 191.426 90.1953 191.357 90.5006 191.221C90.8105 191.079 91.0771 190.868 91.3004 190.585L92.2574 191.624C92.1025 191.847 91.8906 192.062 91.6217 192.267C91.3574 192.472 91.0384 192.64 90.6647 192.772C90.291 192.9 89.8649 192.964 89.3864 192.964ZM95.4703 187.01V192.827H93.5016V185.431H95.3473L95.4703 187.01ZM95.1832 188.869H94.65C94.65 188.322 94.7207 187.83 94.8619 187.393C95.0032 186.951 95.2015 186.575 95.4567 186.265C95.7119 185.95 96.0149 185.711 96.3658 185.547C96.7213 185.378 97.1178 185.294 97.5553 185.294C97.9017 185.294 98.2184 185.344 98.5055 185.444C98.7926 185.545 99.0387 185.704 99.2438 185.923C99.4534 186.142 99.6129 186.431 99.7223 186.791C99.8362 187.151 99.8932 187.591 99.8932 188.11V192.827H97.9108V188.104C97.9108 187.775 97.8652 187.52 97.774 187.338C97.6829 187.156 97.5485 187.028 97.3707 186.955C97.1976 186.878 96.9834 186.839 96.7281 186.839C96.4638 186.839 96.2337 186.891 96.0377 186.996C95.8463 187.101 95.6868 187.247 95.5592 187.434C95.4362 187.616 95.3427 187.83 95.2789 188.076C95.2151 188.322 95.1832 188.587 95.1832 188.869ZM106.073 185.431H107.857V192.581C107.857 193.256 107.707 193.828 107.406 194.297C107.11 194.771 106.695 195.129 106.162 195.37C105.629 195.616 105.009 195.739 104.302 195.739C103.992 195.739 103.664 195.698 103.318 195.616C102.976 195.534 102.648 195.407 102.334 195.233C102.024 195.06 101.764 194.842 101.554 194.577L102.422 193.415C102.65 193.679 102.915 193.884 103.215 194.03C103.516 194.181 103.849 194.256 104.214 194.256C104.569 194.256 104.87 194.19 105.116 194.058C105.362 193.93 105.551 193.741 105.683 193.49C105.815 193.244 105.881 192.946 105.881 192.595V187.14L106.073 185.431ZM101.096 189.218V189.074C101.096 188.509 101.165 187.996 101.301 187.536C101.443 187.071 101.641 186.673 101.896 186.34C102.156 186.007 102.47 185.75 102.839 185.567C103.209 185.385 103.626 185.294 104.09 185.294C104.583 185.294 104.995 185.385 105.328 185.567C105.66 185.75 105.934 186.009 106.148 186.347C106.362 186.679 106.529 187.074 106.647 187.529C106.77 187.98 106.866 188.475 106.934 189.013V189.327C106.866 189.842 106.763 190.321 106.627 190.763C106.49 191.205 106.31 191.592 106.087 191.925C105.863 192.253 105.585 192.508 105.253 192.69C104.924 192.873 104.533 192.964 104.077 192.964C103.621 192.964 103.209 192.87 102.839 192.684C102.475 192.497 102.163 192.235 101.903 191.897C101.643 191.56 101.443 191.164 101.301 190.708C101.165 190.252 101.096 189.756 101.096 189.218ZM103.065 189.074V189.218C103.065 189.523 103.095 189.808 103.154 190.072C103.213 190.337 103.304 190.571 103.427 190.776C103.555 190.977 103.712 191.134 103.899 191.248C104.09 191.357 104.316 191.412 104.576 191.412C104.936 191.412 105.23 191.337 105.458 191.187C105.686 191.032 105.856 190.82 105.97 190.551C106.084 190.282 106.15 189.972 106.169 189.621V188.726C106.159 188.439 106.121 188.181 106.052 187.953C105.984 187.721 105.888 187.522 105.765 187.358C105.642 187.194 105.483 187.067 105.287 186.976C105.091 186.884 104.858 186.839 104.589 186.839C104.33 186.839 104.104 186.898 103.913 187.017C103.726 187.131 103.569 187.288 103.441 187.488C103.318 187.689 103.225 187.926 103.161 188.199C103.097 188.468 103.065 188.76 103.065 189.074ZM113.38 191.159V187.864C113.38 187.627 113.342 187.425 113.264 187.256C113.187 187.083 113.066 186.948 112.902 186.853C112.742 186.757 112.535 186.709 112.28 186.709C112.061 186.709 111.872 186.748 111.713 186.825C111.553 186.898 111.43 187.005 111.343 187.147C111.257 187.283 111.214 187.445 111.214 187.632H109.245C109.245 187.317 109.318 187.019 109.464 186.736C109.609 186.454 109.821 186.205 110.099 185.991C110.377 185.772 110.708 185.602 111.09 185.479C111.478 185.355 111.911 185.294 112.389 185.294C112.964 185.294 113.474 185.39 113.921 185.581C114.367 185.772 114.718 186.06 114.973 186.442C115.233 186.825 115.363 187.304 115.363 187.878V191.043C115.363 191.449 115.388 191.781 115.438 192.041C115.488 192.296 115.561 192.52 115.657 192.711V192.827H113.668C113.572 192.627 113.499 192.376 113.449 192.075C113.403 191.77 113.38 191.465 113.38 191.159ZM113.64 188.322L113.654 189.437H112.553C112.294 189.437 112.068 189.466 111.877 189.525C111.685 189.585 111.528 189.669 111.405 189.778C111.282 189.883 111.191 190.006 111.131 190.147C111.077 190.289 111.049 190.444 111.049 190.612C111.049 190.781 111.088 190.934 111.166 191.07C111.243 191.203 111.355 191.307 111.501 191.385C111.646 191.458 111.817 191.494 112.013 191.494C112.31 191.494 112.567 191.435 112.786 191.316C113.005 191.198 113.173 191.052 113.292 190.879C113.415 190.706 113.478 190.542 113.483 190.387L114.003 191.221C113.93 191.408 113.829 191.601 113.702 191.802C113.579 192.002 113.422 192.191 113.23 192.369C113.039 192.542 112.809 192.686 112.54 192.8C112.271 192.909 111.952 192.964 111.583 192.964C111.113 192.964 110.687 192.87 110.304 192.684C109.926 192.492 109.625 192.23 109.402 191.897C109.183 191.56 109.074 191.177 109.074 190.749C109.074 190.362 109.147 190.018 109.293 189.717C109.438 189.416 109.653 189.163 109.935 188.958C110.222 188.748 110.58 188.591 111.008 188.486C111.437 188.377 111.934 188.322 112.499 188.322H113.64Z" fill="white"/>
<defs>
<linearGradient id="paint0_linear_13_27" x1="24.0151" y1="130.602" x2="62.6503" y2="31.4555" gradientUnits="userSpaceOnUse">
<stop stop-color="#885DF5"/>
<stop offset="0.9944" stop-color="#6B7CFE"/>
</linearGradient>
<linearGradient id="paint1_linear_13_27" x1="75.8556" y1="220.129" x2="144.334" y2="44.3982" gradientUnits="userSpaceOnUse">
<stop stop-color="#885DF5"/>
<stop offset="0.9944" stop-color="#6B7CFE"/>
</linearGradient>
<linearGradient id="paint2_linear_13_27" x1="277.141" y1="41.1438" x2="279.014" y2="36.3374" gradientUnits="userSpaceOnUse">
<stop stop-color="#885DF5"/>
<stop offset="0.9944" stop-color="#6B7CFE"/>
</linearGradient>
<linearGradient id="paint3_linear_13_27" x1="279.235" y1="51.457" x2="284.508" y2="37.9252" gradientUnits="userSpaceOnUse">
<stop stop-color="#885DF5"/>
<stop offset="0.9944" stop-color="#6B7CFE"/>
</linearGradient>
<linearGradient id="paint4_linear_13_27" x1="303.108" y1="52.975" x2="308.292" y2="39.671" gradientUnits="userSpaceOnUse">
<stop stop-color="#885DF5"/>
<stop offset="0.9944" stop-color="#6B7CFE"/>
</linearGradient>
<linearGradient id="paint5_linear_13_27" x1="318.988" y1="54.9049" x2="324.337" y2="41.1787" gradientUnits="userSpaceOnUse">
<stop stop-color="#885DF5"/>
<stop offset="0.9944" stop-color="#6B7CFE"/>
</linearGradient>
<linearGradient id="paint6_linear_13_27" x1="147.331" y1="291.164" x2="232.562" y2="72.4438" gradientUnits="userSpaceOnUse">
<stop stop-color="#885DF5"/>
<stop offset="0.9944" stop-color="#6B7CFE"/>
</linearGradient>
<linearGradient id="paint7_linear_13_27" x1="0.0246164" y1="55.898" x2="106.87" y2="55.8214" gradientUnits="userSpaceOnUse">
<stop stop-color="#4D338A"/>
<stop offset="0.9888" stop-color="#252857"/>
</linearGradient>
<linearGradient id="paint8_linear_13_27" x1="0.0488494" y1="89.7482" x2="252.066" y2="89.5677" gradientUnits="userSpaceOnUse">
<stop stop-color="#6947BD"/>
<stop offset="0.9888" stop-color="#252857"/>
</linearGradient>
<linearGradient id="paint9_linear_13_27" x1="0.0650218" y1="112.3" x2="301.147" y2="112.085" gradientUnits="userSpaceOnUse">
<stop stop-color="#885DF5"/>
<stop offset="0.9888" stop-color="#2E3670"/>
</linearGradient>
<linearGradient id="paint10_linear_13_27" x1="277.141" y1="41.1438" x2="279.014" y2="36.3374" gradientUnits="userSpaceOnUse">
<stop stop-color="#885DF5"/>
<stop offset="0.9944" stop-color="#6B7CFE"/>
</linearGradient>
<linearGradient id="paint11_linear_13_27" x1="279.235" y1="51.457" x2="284.508" y2="37.9252" gradientUnits="userSpaceOnUse">
<stop stop-color="#885DF5"/>
<stop offset="0.9944" stop-color="#6B7CFE"/>
</linearGradient>
<linearGradient id="paint12_linear_13_27" x1="77.2192" y1="112.245" x2="353.572" y2="112.047" gradientUnits="userSpaceOnUse">
<stop stop-color="#885DF5"/>
<stop offset="0.9944" stop-color="#4551A6"/>
</linearGradient>
<linearGradient id="paint13_linear_13_27" x1="303.108" y1="52.975" x2="308.292" y2="39.671" gradientUnits="userSpaceOnUse">
<stop stop-color="#885DF5"/>
<stop offset="0.9944" stop-color="#6B7CFE"/>
</linearGradient>
<linearGradient id="paint14_linear_13_27" x1="318.988" y1="54.9049" x2="324.337" y2="41.1787" gradientUnits="userSpaceOnUse">
<stop stop-color="#885DF5"/>
<stop offset="0.9944" stop-color="#6B7CFE"/>
</linearGradient>
<linearGradient id="paint15_linear_13_27" x1="149.775" y1="143.617" x2="353.595" y2="143.471" gradientUnits="userSpaceOnUse">
<stop stop-color="#885DF5"/>
<stop offset="0.9944" stop-color="#5C6BDB"/>
</linearGradient>
<linearGradient id="paint16_linear_13_27" x1="147.331" y1="291.164" x2="232.562" y2="72.4438" gradientUnits="userSpaceOnUse">
<stop stop-color="#885DF5"/>
<stop offset="0.9944" stop-color="#6B7CFE"/>
</linearGradient>
<linearGradient id="paint17_linear_13_27" x1="190.045" y1="179.496" x2="353.62" y2="179.379" gradientUnits="userSpaceOnUse">
<stop stop-color="#885DF5"/>
<stop offset="0.9944" stop-color="#6B7CFE"/>
</linearGradient>
</defs>
</svg>
